<?xml version="1.0" standalone="no"?>
<!DOCTYPE svg PUBLIC "-//W3C//DTD SVG 20010904//EN"
 "http://www.w3.org/TR/2001/REC-SVG-20010904/DTD/svg10.dtd">
<svg version="1.0" xmlns="http://www.w3.org/2000/svg"
 width="500.000000pt" height="95.000000pt" viewBox="0 0 500.000000 95.000000"
 preserveAspectRatio="xMidYMid meet">

<g transform="translate(0.000000,95.000000) scale(0.100000,-0.100000)"
fill="#000000" stroke="none">
<path d="M2245 629 c-58 -13 -75 -39 -75 -113 0 -69 22 -106 63 -106 43 0 67
27 67 74 0 68 -47 96 -98 60 -22 -15 -23 -15 -16 13 10 41 22 52 66 59 21 4
41 11 44 15 6 10 3 10 -51 -2z m25 -99 c11 -11 20 -31 20 -45 0 -27 -31 -65
-53 -65 -24 0 -47 24 -53 56 -5 26 -1 35 21 53 34 26 40 26 65 1z"/>
<path d="M703 620 c-13 -5 -23 -11 -23 -13 0 -1 24 -3 53 -2 49 0 52 -2 55
-26 4 -32 -13 -46 -58 -51 l-35 -4 40 -8 c48 -10 65 -22 65 -46 0 -29 -29 -45
-78 -43 -31 1 -41 -1 -31 -8 22 -14 72 -11 97 7 26 18 30 65 7 84 -14 12 -14
15 0 30 47 52 -20 109 -92 80z"/>
<path d="M890 546 c0 -30 -19 -87 -36 -107 -8 -8 -13 -31 -13 -50 2 -30 2 -31
6 -6 4 26 7 27 64 27 59 0 66 -5 60 -42 0 -5 3 -8 9 -8 6 0 10 13 10 29 0 17
-4 33 -10 36 -5 3 -10 37 -10 76 l0 69 -40 0 c-35 0 -40 -3 -40 -24z m60 -56
c0 -67 -1 -70 -24 -70 -49 0 -55 7 -40 48 7 20 13 46 14 58 0 26 8 34 32 34
16 0 18 -9 18 -70z"/>
<path d="M1034 549 c-28 -31 -25 -96 5 -120 25 -21 67 -25 91 -8 11 7 5 8 -22
3 -29 -5 -40 -2 -57 15 -37 37 -28 51 34 51 52 0 55 2 55 24 0 53 -69 76 -106
35z m81 -5 c9 -9 14 -21 12 -28 -4 -14 -61 -20 -82 -9 -13 8 -13 11 1 31 18
26 46 28 69 6z"/>
<path d="M1201 544 c-28 -36 -27 -79 4 -109 25 -26 69 -33 81 -14 4 8 -1 9
-15 4 -14 -4 -31 -1 -46 9 -36 24 -35 89 0 112 14 9 34 14 45 11 11 -3 20 -1
20 4 0 5 -15 9 -34 9 -25 0 -40 -7 -55 -26z"/>
<path d="M1336 549 c-4 -14 -6 -50 -4 -80 l3 -54 42 -3 c53 -4 83 11 83 42 0
31 -17 44 -65 48 -37 3 -40 6 -46 38 -5 34 -6 34 -13 9z m103 -73 c24 -29 -8
-56 -66 -56 -20 0 -23 5 -23 35 0 34 1 35 39 35 21 0 44 -6 50 -14z"/>
<path d="M1585 547 c-4 -13 -2 -50 3 -83 l10 -59 1 65 2 65 26 -62 c15 -35 29
-63 33 -63 4 0 18 28 33 63 l26 62 0 -63 c1 -39 5 -61 11 -57 6 3 10 40 10 81
0 96 -19 100 -51 9 -12 -35 -26 -62 -30 -59 -5 2 -18 32 -30 64 -23 64 -35 74
-44 37z"/>
<path d="M1801 544 c-28 -36 -27 -79 4 -109 49 -50 115 -19 115 55 0 75 -76
109 -119 54z m89 -4 c11 -11 20 -33 20 -50 0 -31 -30 -70 -53 -70 -30 0 -57
31 -57 67 0 65 49 94 90 53z"/>
<path d="M1972 488 l2 -83 3 77 4 77 42 4 42 4 -47 1 -48 2 2 -82z"/>
<path d="M2351 493 l-1 -83 41 0 c56 0 79 14 79 50 0 31 -9 36 -75 42 -26 3
-31 8 -36 38 -4 24 -7 8 -8 -47z m98 -17 c6 -7 9 -21 5 -29 -6 -18 -66 -33
-83 -22 -12 7 -15 48 -4 58 12 12 70 7 82 -7z"/>
<path d="M2503 490 c0 -47 2 -66 4 -42 2 23 2 61 0 85 -2 23 -4 4 -4 -43z"/>
<path d="M2573 563 c27 -4 27 -5 27 -79 0 -48 4 -73 10 -69 6 3 10 37 10 75 0
67 1 69 28 73 15 2 -2 4 -38 4 -36 0 -53 -2 -37 -4z"/>
<path d="M2700 490 l0 -80 49 0 c52 0 81 17 81 49 0 28 -21 41 -67 41 -42 0
-43 0 -43 35 0 19 -4 35 -10 35 -6 0 -10 -33 -10 -80z m109 -18 c14 -27 -1
-43 -48 -49 l-41 -6 0 37 c0 35 1 36 40 36 28 0 42 -5 49 -18z"/>
<path d="M2952 493 l3 -78 42 -3 c23 -2 51 2 63 8 21 11 28 54 10 65 -6 4 -5
15 2 30 17 38 -4 55 -69 55 l-54 0 3 -77z m98 57 c25 -16 -1 -45 -41 -45 -30
0 -34 4 -37 28 -3 25 0 27 30 27 18 0 40 -5 48 -10z m9 -74 c24 -29 -8 -56
-66 -56 -20 0 -23 5 -23 35 0 34 1 35 39 35 21 0 44 -6 50 -14z"/>
<path d="M3140 559 c-11 -7 -5 -8 21 -4 25 5 39 2 48 -9 21 -25 6 -46 -32 -46
-41 0 -72 -29 -62 -59 8 -26 48 -37 80 -23 18 8 25 8 29 -1 2 -7 5 20 5 59 1
42 -4 75 -11 82 -15 15 -58 15 -78 1z m80 -89 c0 -23 -44 -55 -65 -46 -46 17
-18 66 37 66 21 0 28 -5 28 -20z"/>
<path d="M3292 493 l-2 -83 100 0 100 0 -2 83 -2 82 -5 -75 -6 -75 -37 -3 -38
-3 0 75 c0 97 -18 100 -22 4 l-3 -73 -35 0 -35 0 -6 75 -5 75 -2 -82z"/>
<path d="M3638 553 c-24 -28 -28 -63 -13 -99 27 -66 111 -53 129 19 8 31 6 42
-11 65 -25 34 -81 42 -105 15z m84 -10 c27 -24 24 -87 -4 -107 -30 -21 -44
-20 -68 4 -38 38 -13 120 37 120 9 0 25 -7 35 -17z"/>
<path d="M3802 563 c29 -5 34 -18 41 -113 2 -27 4 -14 5 32 2 75 2 77 30 81
15 2 -2 4 -38 4 -36 0 -53 -2 -38 -4z"/>
<path d="M3934 559 c-4 -8 0 -9 15 -4 28 9 61 -3 61 -21 0 -8 -15 -21 -32 -29
-32 -14 -32 -14 -7 -15 31 0 52 -21 43 -43 -8 -21 -35 -29 -71 -22 -21 5 -24
4 -13 -4 19 -14 56 -14 81 -1 21 12 25 50 7 68 -8 8 -8 15 1 26 21 25 -3 56
-44 56 -18 0 -37 -5 -41 -11z"/>
<path d="M4072 493 l3 -78 41 -3 c29 -2 48 3 64 16 21 17 23 23 13 45 -10 21
-20 26 -55 29 -40 3 -43 5 -46 36 -2 17 -8 32 -13 32 -6 0 -9 -32 -7 -77z m92
-9 c41 -16 5 -64 -48 -64 -23 0 -26 4 -26 35 0 32 2 35 29 35 16 0 36 -3 45
-6z"/>
<path d="M4227 563 c-11 -10 -8 -141 3 -148 6 -4 10 23 10 74 0 81 -1 87 -13
74z"/>
<path d="M4290 490 l0 -80 49 0 c52 0 81 17 81 49 0 9 -5 22 -12 29 -8 8 -8
15 1 26 9 11 10 20 1 35 -9 17 -20 21 -65 21 l-55 0 0 -80z m94 64 c38 -15 3
-54 -48 -54 -22 0 -26 4 -26 30 0 26 3 30 29 30 16 0 36 -3 45 -6z m14 -95 c3
-28 -15 -39 -65 -39 -20 0 -23 5 -23 36 l0 35 43 -3 c37 -3 42 -6 45 -29z"/>
</g>
</svg>
