<?xml version="1.0" encoding="UTF-8"?>
<svg xmlns="http://www.w3.org/2000/svg" xmlns:xlink="http://www.w3.org/1999/xlink" width="19pt" height="19pt" viewBox="0 0 19 19" version="1.1">
<g id="surface8058331">
<path style=" stroke:none;fill-rule:nonzero;fill:rgb(18.039216%,80%,44.313725%);fill-opacity:1;" d="M 18.707031 9.5 C 18.707031 4.414062 14.582031 0.292969 9.5 0.292969 C 4.414062 0.292969 0.292969 4.417969 0.292969 9.5 C 0.292969 14.585938 4.417969 18.707031 9.5 18.707031 C 14.585938 18.707031 18.707031 14.582031 18.707031 9.5 Z M 18.707031 9.5 "/>
<path style=" stroke:none;fill-rule:nonzero;fill:rgb(100%,100%,100%);fill-opacity:1;" d="M 14.570312 6.417969 C 14.355469 5.855469 13.914062 5.945312 13.433594 6.042969 C 13.148438 6.101562 11.875 6.472656 9.867188 8.59375 C 9.03125 9.472656 8.484375 10.175781 8.121094 10.710938 C 7.898438 10.4375 7.644531 10.144531 7.378906 9.882812 C 6.558594 9.0625 5.640625 8.496094 5.601562 8.476562 C 5.222656 8.242188 4.71875 8.359375 4.484375 8.746094 C 4.25 9.128906 4.367188 9.628906 4.75 9.867188 C 4.757812 9.871094 5.542969 10.355469 6.21875 11.035156 C 6.910156 11.726562 7.535156 12.660156 7.542969 12.671875 C 7.695312 12.902344 7.953125 13.035156 8.222656 13.035156 C 8.269531 13.035156 8.316406 13.03125 8.363281 13.023438 C 8.683594 12.96875 8.9375 12.730469 9.015625 12.421875 C 9.019531 12.414062 9.339844 11.519531 11.042969 9.722656 C 12.417969 8.273438 13.332031 7.8125 13.652344 7.683594 C 13.65625 7.683594 13.65625 7.683594 13.664062 7.683594 C 13.664062 7.683594 13.675781 7.679688 13.695312 7.671875 C 13.75 7.648438 13.777344 7.640625 13.777344 7.640625 C 13.765625 7.644531 13.757812 7.644531 13.757812 7.644531 L 13.757812 7.640625 C 13.90625 7.578125 14.179688 7.457031 14.183594 7.457031 C 14.59375 7.277344 14.734375 6.832031 14.570312 6.417969 Z M 14.570312 6.417969 "/>
</g>
</svg>
