<?xml version="1.0" standalone="no"?>
<!DOCTYPE svg PUBLIC "-//W3C//DTD SVG 20010904//EN"
 "http://www.w3.org/TR/2001/REC-SVG-20010904/DTD/svg10.dtd">
<svg version="1.0" xmlns="http://www.w3.org/2000/svg"
 width="808.000000pt" height="459.000000pt" viewBox="0 0 808.000000 459.000000"
 preserveAspectRatio="xMidYMid meet">

<g transform="translate(0.000000,459.000000) scale(0.100000,-0.100000)"
fill="#000000" stroke="none">
<path d="M3640 2846 c-30 -7 -65 -18 -77 -24 -82 -44 -83 -275 -3 -317 49 -25
88 -19 126 19 31 31 34 40 34 91 0 49 -4 60 -29 86 -35 35 -71 37 -124 9 l-37
-20 0 27 c0 16 9 42 19 59 15 25 30 34 73 44 81 18 88 21 88 31 0 11 2 11 -70
-5z m31 -155 c20 -16 24 -28 24 -76 0 -50 -3 -60 -28 -81 -44 -38 -106 -26
-126 25 -24 62 -24 81 0 108 43 46 92 55 130 24z"/>
<path d="M1133 2826 c-34 -15 -48 -45 -15 -31 81 35 146 26 158 -21 15 -61
-20 -94 -101 -94 -25 0 -45 -4 -45 -10 0 -5 18 -10 40 -10 59 0 108 -23 116
-55 17 -66 -53 -108 -144 -87 -49 11 -58 10 -48 -7 9 -14 89 -24 131 -17 84
16 119 103 61 153 l-28 23 21 18 c12 9 24 33 27 53 5 28 1 41 -18 64 -30 34
-104 44 -155 21z"/>
<path d="M1437 2697 c-9 -72 -34 -141 -63 -172 -19 -20 -24 -37 -24 -76 0 -37
4 -49 15 -49 11 0 15 12 15 45 l0 45 94 0 c102 0 105 -2 106 -67 0 -13 5 -23
10 -23 6 0 10 25 10 55 0 40 -4 55 -14 55 -17 0 -26 52 -26 158 l0 82 -59 0
-58 0 -6 -53z m103 -77 l0 -110 -69 0 -70 0 19 43 c10 23 24 72 31 110 l12 67
39 0 38 0 0 -110z"/>
<path d="M1703 2740 c-84 -34 -81 -208 5 -241 32 -13 109 -6 125 10 9 9 -2 10
-43 6 -68 -7 -101 8 -116 55 -7 19 -10 38 -7 43 2 4 44 7 94 7 89 0 89 0 89
25 0 78 -73 125 -147 95z m97 -30 c11 -11 20 -31 20 -45 0 -24 -2 -25 -75 -25
-69 0 -75 2 -75 20 0 12 11 32 25 45 30 31 77 33 105 5z"/>
<path d="M1968 2734 c-80 -43 -75 -203 8 -234 29 -11 75 -13 98 -4 31 12 15
19 -40 19 -46 0 -59 4 -75 23 -27 34 -34 86 -17 130 17 46 50 64 106 59 42 -5
57 5 26 17 -27 10 -78 6 -106 -10z"/>
<path d="M2160 2619 l0 -131 79 3 c92 5 121 22 121 74 0 56 -19 69 -104 73
l-76 4 0 54 c0 30 -4 54 -10 54 -6 0 -10 -50 -10 -131z m158 -15 c27 -19 28
-48 2 -74 -16 -16 -33 -20 -80 -20 l-60 0 0 55 0 55 58 0 c36 0 66 -6 80 -16z"/>
<path d="M2560 2621 c0 -81 4 -131 10 -131 6 0 10 34 10 83 0 121 11 123 55
12 21 -53 43 -94 49 -92 6 2 29 48 51 103 l40 99 3 -102 c1 -57 6 -103 11
-103 4 0 11 49 14 108 11 189 -11 201 -73 42 -24 -61 -46 -108 -49 -105 -3 4
-24 52 -46 108 -27 66 -47 103 -58 105 -15 3 -17 -10 -17 -127z"/>
<path d="M2943 2740 c-55 -22 -81 -127 -48 -190 42 -80 166 -77 201 5 49 119
-42 229 -153 185z m90 -22 c35 -18 46 -40 47 -90 0 -60 -15 -94 -51 -108 -82
-34 -151 49 -119 144 19 59 72 82 123 54z"/>
<path d="M3180 2620 c0 -80 4 -130 10 -130 8 0 17 194 11 233 0 4 28 7 64 7
37 0 65 4 65 10 0 6 -32 10 -75 10 l-75 0 0 -130z"/>
<path d="M3800 2620 l0 -130 69 0 c85 0 124 25 124 79 0 49 -23 65 -103 69
l-70 4 0 54 c0 30 -4 54 -10 54 -6 0 -10 -50 -10 -130z m148 -16 c12 -8 22
-26 22 -39 0 -35 -36 -55 -97 -55 l-53 0 0 55 0 55 53 0 c31 0 61 -6 75 -16z"/>
<path d="M4040 2620 c0 -80 4 -130 10 -130 6 0 10 50 10 130 0 80 -4 130 -10
130 -6 0 -10 -50 -10 -130z"/>
<path d="M4120 2740 c0 -5 18 -10 40 -10 l40 0 0 -120 c0 -100 3 -120 15 -120
13 0 15 20 15 120 l0 120 40 0 c22 0 40 5 40 10 0 6 -38 10 -95 10 -57 0 -95
-4 -95 -10z"/>
<path d="M4370 2620 l0 -130 74 0 c59 0 78 4 100 21 23 18 27 28 24 62 -4 52
-29 67 -115 67 l-63 0 0 55 c0 30 -4 55 -10 55 -6 0 -10 -50 -10 -130z m170
-20 c33 -51 -7 -90 -92 -90 l-58 0 0 56 0 56 71 -4 c47 -2 73 -8 79 -18z"/>
<path d="M4770 2619 l0 -131 86 3 c76 4 88 7 105 28 26 31 25 76 -2 95 -20 14
-21 16 -5 32 25 25 17 75 -14 91 -14 7 -58 13 -97 13 l-73 0 0 -131z m171 90
c26 -42 -5 -69 -82 -69 l-59 0 0 46 0 46 66 -4 c42 -3 69 -9 75 -19z m-17 -99
c21 -8 26 -16 26 -45 0 -42 -23 -55 -101 -55 l-49 0 0 55 0 55 49 0 c27 0 61
-4 75 -10z"/>
<path d="M5082 2739 c-13 -5 -20 -13 -17 -19 4 -7 12 -7 25 0 28 15 77 12 94
-6 9 -8 16 -29 16 -45 0 -26 -3 -29 -32 -29 -112 0 -172 -67 -113 -125 28 -29
76 -33 115 -10 32 18 40 18 40 0 0 -8 5 -15 10 -15 14 0 13 169 -1 209 -6 17
-19 36 -29 41 -23 12 -77 12 -108 -1z m118 -147 c0 -40 -25 -70 -64 -78 -46
-8 -76 9 -76 45 0 43 25 57 103 60 34 1 37 -1 37 -27z"/>
<path d="M5310 2620 l0 -130 165 0 165 0 0 130 c0 80 -4 130 -10 130 -6 0 -10
-47 -10 -120 l0 -120 -65 0 -65 0 0 120 c0 73 -4 120 -10 120 -6 0 -10 -34
-10 -82 0 -46 -3 -100 -6 -120 l-7 -38 -57 0 c-69 0 -70 0 -70 143 0 58 -4 97
-10 97 -6 0 -10 -50 -10 -130z"/>
<path d="M5902 2737 c-40 -23 -57 -58 -56 -117 0 -64 20 -102 65 -120 40 -17
98 -6 128 25 23 22 26 34 26 95 0 62 -3 72 -26 96 -31 31 -101 42 -137 21z
m113 -31 c63 -63 28 -196 -52 -196 -35 0 -70 20 -82 47 -14 31 -14 95 0 127
23 49 95 61 134 22z"/>
<path d="M6110 2740 c0 -5 20 -10 45 -10 l45 0 0 -120 c0 -73 4 -120 10 -120
6 0 10 47 10 120 l0 120 45 0 c25 0 45 5 45 10 0 6 -40 10 -100 10 -60 0 -100
-4 -100 -10z"/>
<path d="M6363 2740 c-37 -15 -26 -21 26 -14 59 8 91 -7 91 -41 0 -28 -26 -45
-69 -45 -17 0 -31 -4 -31 -10 0 -5 15 -10 33 -10 42 0 77 -25 77 -55 0 -45
-64 -68 -124 -45 -20 7 -26 6 -26 -5 0 -32 116 -31 152 2 24 22 24 78 -1 99
-18 16 -18 17 0 35 25 25 24 45 -6 74 -26 27 -78 33 -122 15z"/>
<path d="M6580 2619 l0 -131 79 3 c92 5 121 22 121 73 0 56 -31 76 -114 76
l-56 0 0 55 c0 42 -3 55 -15 55 -13 0 -15 -21 -15 -131z m161 -20 c14 -14 18
-27 13 -42 -10 -35 -20 -40 -84 -45 l-60 -4 0 56 0 56 55 0 c42 0 60 -5 76
-21z"/>
<path d="M6830 2620 c0 -80 4 -130 10 -130 6 0 10 50 10 130 0 80 -4 130 -10
130 -6 0 -10 -50 -10 -130z"/>
<path d="M6940 2620 l0 -130 74 0 c59 0 78 4 100 21 32 25 36 81 7 105 -18 16
-18 17 0 35 25 25 24 45 -6 74 -21 22 -33 25 -100 25 l-75 0 0 -130z m151 100
c11 -6 19 -21 19 -35 0 -32 -27 -45 -94 -45 l-56 0 0 45 0 45 56 0 c30 0 64
-5 75 -10z m7 -116 c27 -19 28 -48 2 -74 -16 -16 -33 -20 -80 -20 l-60 0 0 55
0 55 58 0 c36 0 66 -6 80 -16z"/>
</g>
</svg>
